<svg aria-hidden="true" style="position: absolute; width: 0; height: 0; overflow: hidden;" version="1.1" xmlns="http://www.w3.org/2000/svg" xmlns:xlink="http://www.w3.org/1999/xlink">
<defs>
    <symbol id="cross-flattened" viewBox="0 0 45 32">
        <path d="M45.241 26.571l-14.939-10.569 14.934-10.567-7.676-5.435-14.942 10.567-14.939-10.567-7.679 5.435 14.934 10.567-14.934 10.567 7.684 5.431 14.934-10.567 14.934 10.567 7.69-5.429z"></path>
    </symbol>
    <symbol id="cross-normal" viewBox="0 0 32 32">
        <path d="M32 26.571l-10.567-10.569 10.563-10.567-5.429-5.435-10.569 10.567-10.567-10.567-5.431 5.435 10.563 10.567-10.563 10.567 5.435 5.431 10.563-10.567 10.563 10.567 5.439-5.429z"></path>
    </symbol>
    <symbol id="instagram" viewBox="0 0 29 32">
        <path d="M8.507 0h12.32c4.693 0 8.507 4.16 8.507 9.28v13.44c0 2.461-0.896 4.822-2.492 6.562s-3.759 2.718-6.015 2.718h-12.32c-4.693 0-8.507-4.16-8.507-9.28v-13.44c0-2.461 0.896-4.822 2.492-6.562s3.759-2.718 6.015-2.718zM8.213 3.2c-1.4 0-2.743 0.607-3.734 1.687s-1.546 2.545-1.546 4.073v14.080c0 3.184 2.361 5.76 5.28 5.76h12.907c1.4 0 2.743-0.607 3.734-1.687s1.546-2.545 1.546-4.073v-14.080c0-3.184-2.361-5.76-5.28-5.76h-12.907zM22.367 5.6c0.486 0 0.953 0.211 1.296 0.586s0.537 0.884 0.537 1.414c0 0.53-0.193 1.039-0.537 1.414s-0.81 0.586-1.296 0.586-0.953-0.211-1.296-0.586c-0.344-0.375-0.537-0.884-0.537-1.414s0.193-1.039 0.537-1.414c0.344-0.375 0.81-0.586 1.296-0.586zM14.667 8c1.945 0 3.81 0.843 5.185 2.343s2.148 3.535 2.148 5.657-0.773 4.157-2.148 5.657c-1.375 1.5-3.241 2.343-5.185 2.343s-3.81-0.843-5.185-2.343c-1.375-1.5-2.148-3.535-2.148-5.657s0.773-4.157 2.148-5.657c1.375-1.5 3.241-2.343 5.185-2.343zM14.667 11.2c-1.167 0-2.286 0.506-3.111 1.406s-1.289 2.121-1.289 3.394 0.464 2.494 1.289 3.394c0.825 0.9 1.944 1.406 3.111 1.406s2.286-0.506 3.111-1.406c0.825-0.9 1.289-2.121 1.289-3.394s-0.464-2.494-1.289-3.394c-0.825-0.9-1.944-1.406-3.111-1.406z"></path>
    </symbol>
    <symbol id="line" viewBox="0 0 2 32">
        <path d="M0.667 30.667l-0.636 1.333h1.54l-0.636-1.333h-0.267zM0.667 0v30.8h0.267v-30.8h-0.267z"></path>
    </symbol>
    <symbol id="linkedin" viewBox="0 0 26 32">
        <path d="M20.91 4c0.584 0 1.144 0.281 1.556 0.781s0.645 1.178 0.645 1.886v18.667c0 0.707-0.232 1.386-0.645 1.886s-0.973 0.781-1.556 0.781h-15.407c-0.584 0-1.144-0.281-1.556-0.781s-0.645-1.178-0.645-1.886v-18.667c0-0.707 0.232-1.386 0.645-1.886s0.973-0.781 1.556-0.781h15.407zM20.36 24.667v-7.067c0-1.153-0.378-2.258-1.051-3.074s-1.585-1.273-2.537-1.273c-0.935 0-2.025 0.693-2.553 1.733v-1.48h-3.070v11.16h3.070v-6.573c0-1.027 0.682-1.867 1.53-1.867 0.409 0 0.801 0.197 1.089 0.547s0.451 0.825 0.451 1.32v6.573h3.070zM7.572 11.413c0.49 0 0.961-0.236 1.307-0.656s0.542-0.99 0.542-1.584c0-1.24-0.825-2.253-1.849-2.253-0.493 0-0.966 0.237-1.315 0.66s-0.545 0.996-0.545 1.593c0 1.24 0.836 2.24 1.86 2.24zM9.101 24.667v-11.16h-3.048v11.16h3.048z"></path>
    </symbol>
    <symbol id="facebook" viewBox="0 0 32 32">
        <path d="M24.572 2.286q2.125 0 3.634 1.509t1.509 3.634v17.143q0 2.125-1.509 3.634t-3.634 1.509h-3.357v-10.625h3.554l0.536-4.143h-4.089v-2.643q0-1 0.42-1.5t1.634-0.5l2.179-0.018v-3.696q-1.125-0.161-3.179-0.161-2.429 0-3.884 1.429t-1.455 4.036v3.054h-3.571v4.143h3.571v10.625h-9.5q-2.125 0-3.634-1.509t-1.509-3.634v-17.143q0-2.125 1.509-3.634t3.634-1.509h17.143z"></path>
    </symbol>
    <symbol id="phone" viewBox="0 0 32 32">
        <path d="M12 29.333h8c2.933 0 5.333-2.4 5.333-5.333v-16c0-2.933-2.4-5.333-5.333-5.333h-8c-2.933 0-5.333 2.4-5.333 5.333v16c0 2.933 2.4 5.333 5.333 5.333zM9.333 8c0-1.467 1.2-2.667 2.667-2.667h8c1.467 0 2.667 1.2 2.667 2.667v16c0 1.467-1.2 2.667-2.667 2.667h-8c-1.467 0-2.667-1.2-2.667-2.667v-16z"></path>
        <path d="M14.667 9.333h2.667c0.8 0 1.333-0.533 1.333-1.333s-0.533-1.333-1.333-1.333h-2.667c-0.8 0-1.333 0.533-1.333 1.333s0.533 1.333 1.333 1.333z"></path>
    </symbol>
    <symbol id="clock" viewBox="0 0 32 32">
        <path d="M16 31c-8.284 0-15-6.716-15-15s6.716-15 15-15c8.284 0 15 6.716 15 15v0c0 8.284-6.716 15-15 15v0zM16 3c-7.18 0-13 5.82-13 13s5.82 13 13 13c7.18 0 13-5.82 13-13v0c0-7.18-5.82-13-13-13v0z"></path>
        <path d="M17 17h-8c-0.552 0-1-0.448-1-1v0c0-0.552 0.448-1 1-1v0h6v-8c0-0.552 0.448-1 1-1v0c0.552 0 1 0.448 1 1v0z"></path>
    </symbol>
    <symbol id="viber" viewBox="0 0 32 32">
        <path d="M10.64 10.248c0.168-0.168 0.736-0.608 0.736-0.608 0.161-0.133 0.37-0.214 0.598-0.214 0.302 0 0.572 0.142 0.744 0.363l0.002 0.002 1.296 1.648c0.13 0.167 0.208 0.38 0.208 0.61 0 0.266-0.104 0.507-0.272 0.686l0-0.001-0.616 0.648c-0.115 0.114-0.185 0.273-0.185 0.447 0 0.081 0.015 0.158 0.043 0.229l-0.001-0.004c0.284 0.749 0.676 1.394 1.166 1.951l-0.006-0.007c0.6 0.567 1.265 1.077 1.979 1.514l0.052 0.030c0.129 0.075 0.284 0.12 0.45 0.12 0.245 0 0.468-0.098 0.63-0.256l-0 0 0.576-0.552c0.164-0.178 0.399-0.289 0.659-0.289 0.187 0 0.36 0.057 0.504 0.155l-0.003-0.002 1.704 1.136c0.281 0.191 0.464 0.509 0.464 0.87 0 0.236-0.078 0.454-0.209 0.629l0.002-0.003-0.304 0.416c-0.397 0.527-1.021 0.864-1.724 0.864-0.342 0-0.665-0.080-0.953-0.222l0.013 0.006c-1.772-0.796-3.29-1.828-4.598-3.078l0.006 0.006c-1.010-1.152-1.922-2.439-2.693-3.814l-0.059-0.114-0.64-1.376c-0.080-0.169-0.126-0.367-0.126-0.576 0-0.336 0.12-0.643 0.32-0.882l-0.002 0.002c0.076-0.127 0.155-0.237 0.243-0.339l-0.003 0.003zM20.24 14.624v-0.328c0-0 0-0 0-0 0-2.195-1.768-3.977-3.958-4l-0.002-0h-0.176c-0.112 0.009-0.2 0.102-0.2 0.215 0 0 0 0 0 0.001v-0c0.004 0.112 0.096 0.201 0.208 0.201 0.006 0 0.011-0 0.017-0.001l-0.001 0h0.152c1.955 0.005 3.539 1.589 3.544 3.544v0.296c-0 0.005-0.001 0.011-0.001 0.017 0 0.109 0.085 0.199 0.192 0.207l0.001 0c0.002 0 0.005 0 0.008 0 0.095 0 0.175-0.064 0.2-0.151l0-0.001zM18.728 14.152c0.004-0.041 0.006-0.088 0.006-0.136s-0.002-0.095-0.006-0.142l0 0.006c-0.005-1.173-0.955-2.123-2.128-2.128h-0.136c-0.109 0.016-0.192 0.109-0.192 0.222 0 0.004 0 0.007 0 0.011l-0-0.001c0.012 0.105 0.1 0.186 0.207 0.186 0.009 0 0.018-0.001 0.026-0.002l-0.001 0h0.096c0 0 0 0 0 0 0.941 0 1.704 0.763 1.704 1.704 0 0.003 0 0.006-0 0.008v-0c0.002 0.032 0.003 0.070 0.003 0.108s-0.001 0.076-0.003 0.113l0-0.005c-0.002 0.010-0.003 0.022-0.003 0.034 0 0.105 0.077 0.191 0.178 0.206l0.001 0c0.008 0.001 0.016 0.002 0.025 0.002 0.107 0 0.195-0.081 0.207-0.185l0-0.001zM21.6 15.072v-0.608c-0.013-3.1-2.505-5.615-5.595-5.664l-0.005-0h-0.32c-0.107 0.004-0.193 0.092-0.193 0.2 0 0.006 0 0.011 0.001 0.017l-0-0.001c0.009 0.112 0.102 0.2 0.215 0.2 0 0 0 0 0.001 0h0.296c0 0 0 0 0 0 2.904 0 5.259 2.352 5.264 5.256v0.568c-0.001 0.007-0.002 0.016-0.002 0.025 0 0.105 0.081 0.192 0.185 0.199l0.001 0c0.084-0.027 0.146-0.101 0.152-0.191l0-0.001zM18.688 14.152c0.004-0.041 0.006-0.088 0.006-0.136s-0.002-0.095-0.006-0.142l0 0.006c-0.005-1.173-0.955-2.123-2.128-2.128h-0.136c-0.109 0.016-0.192 0.109-0.192 0.222 0 0.004 0 0.007 0 0.011l-0-0.001c0.012 0.105 0.1 0.186 0.207 0.186 0.009 0 0.018-0.001 0.026-0.002l-0.001 0h0.096c0 0 0 0 0 0 0.941 0 1.704 0.763 1.704 1.704 0 0.003 0 0.006-0 0.008v-0c0.002 0.032 0.003 0.070 0.003 0.108s-0.001 0.076-0.003 0.113l0-0.005c-0.002 0.010-0.003 0.022-0.003 0.034 0 0.105 0.077 0.191 0.178 0.206l0.001 0c0.019 0.007 0.041 0.010 0.064 0.010 0.11 0 0.2-0.085 0.207-0.194l0-0.001zM26.552 12.664l-0.080 4.68c0 4.24-3.856 7.088-8.096 7.088h-4.128l-2.128 2.448c-0.169 0.185-0.411 0.301-0.68 0.301-0.501 0-0.909-0.401-0.92-0.9l-0-0.001v-2.4c-2.968-1.111-5.051-3.908-5.088-7.195l-0-0.005v-3.88c0-4.44 2.568-7.68 7.952-7.952 1.128-0.056 4.528 0 4.528 0 5.616-0.048 8.664 3.192 8.664 7.816zM25 13.016c-0.048-4.312-2.6-6.616-7.4-6.616h-3.84c-4.592 0.224-6.696 2.992-6.696 6.672v3.272c-0.003 0.069-0.004 0.15-0.004 0.231 0 2.68 1.709 4.961 4.097 5.812l0.043 0.013v3.896c-0 0.003-0 0.006-0 0.009 0 0.097 0.079 0.176 0.176 0.176 0.055 0 0.104-0.025 0.136-0.064l0-0 3.184-3.68h3.368c3.896 0 6.904-2.4 6.904-5.88z"></path>
    </symbol>
    <symbol id="telegram" viewBox="0 0 32 32">
        <path d="M27.553 4.956l-23.64 9.116c-1.613 0.648-1.604 1.548-0.296 1.949l6.069 1.893 14.043-8.86c0.664-0.404 1.271-0.187 0.772 0.256l-11.377 10.269-0.419 6.256c0.613 0 0.884-0.281 1.228-0.613l2.948-2.867 6.132 4.529c1.131 0.623 1.943 0.303 2.224-1.047l4.025-18.971c0.412-1.652-0.631-2.4-1.709-1.912z"></path>
    </symbol>
    <symbol id="mail" viewBox="0 0 32 32">
        <path d="M7.467 7.467c-1.764 0-3.2 1.436-3.2 3.2v10.667c0 1.764 1.436 3.2 3.2 3.2h17.067c1.764 0 3.2-1.436 3.2-3.2v-10.667c0-1.764-1.436-3.2-3.2-3.2h-17.067zM7.467 8.533h17.067c1.191 0 2.133 0.942 2.133 2.133v10.667c0 1.191-0.942 2.133-2.133 2.133h-17.067c-0.005 0-0.010 0-0.016 0-1.169 0-2.117-0.948-2.117-2.117 0-0.006 0-0.011 0-0.017v0.001-10.667c0-1.191 0.942-2.133 2.133-2.133z"></path>
        <path d="M8.015 10.667c-0.005-0-0.010-0-0.015-0-0.147 0-0.281 0.060-0.377 0.156v0c-0.096 0.097-0.156 0.23-0.156 0.377s0.060 0.281 0.156 0.377l6.4 6.4c1.087 1.088 2.867 1.088 3.954 0l6.4-6.4c0.096-0.097 0.156-0.23 0.156-0.377s-0.060-0.281-0.156-0.377v0c-0.096-0.096-0.23-0.156-0.377-0.156s-0.281 0.060-0.377 0.156l-6.4 6.4c-0.312 0.315-0.745 0.51-1.223 0.51s-0.911-0.195-1.223-0.51l-6.4-6.4c-0.093-0.093-0.22-0.152-0.361-0.156l-0.001-0z"></path>
    </symbol>
</defs>
</svg>
